<svg width="55" height="24" viewBox="0 0 55 24" fill="none" xmlns="http://www.w3.org/2000/svg">
<path d="M9.24 23.384C6.40267 23.384 4.29067 22.3813 2.904 20.376C1.53867 18.3707 0.856 15.5227 0.856 11.832C0.856 8.14133 1.53867 5.29333 2.904 3.288C4.29067 1.28267 6.40267 0.279999 9.24 0.279999C10.328 0.279999 11.2667 0.429332 12.056 0.727999C12.8667 1.00533 13.56 1.4 14.136 1.912C14.712 2.40267 15.192 2.98933 15.576 3.672C15.9813 4.33333 16.312 5.048 16.568 5.816L13.336 6.904C13.1653 6.392 12.9733 5.912 12.76 5.464C12.5467 5.016 12.28 4.632 11.96 4.312C11.64 3.992 11.256 3.736 10.808 3.544C10.3813 3.352 9.848 3.256 9.208 3.256C7.62933 3.256 6.47733 3.864 5.752 5.08C5.02667 6.27467 4.664 7.896 4.664 9.944V13.72C4.664 15.768 5.02667 17.4 5.752 18.616C6.47733 19.8107 7.62933 20.408 9.208 20.408C9.848 20.408 10.3813 20.312 10.808 20.12C11.256 19.928 11.64 19.672 11.96 19.352C12.28 19.032 12.5467 18.648 12.76 18.2C12.9733 17.752 13.1653 17.272 13.336 16.76L16.568 17.848C16.312 18.616 15.9813 19.3413 15.576 20.024C15.192 20.6853 14.712 21.272 14.136 21.784C13.56 22.2747 12.8667 22.6693 12.056 22.968C11.2667 23.2453 10.328 23.384 9.24 23.384ZM27.5955 23.384C25.6542 23.384 24.0222 23.0427 22.6995 22.36C21.3768 21.6773 20.2888 20.7707 19.4355 19.64L21.7395 17.432C22.5928 18.456 23.4995 19.2133 24.4595 19.704C25.4195 20.1733 26.5075 20.408 27.7235 20.408C29.1315 20.408 30.2088 20.088 30.9555 19.448C31.7235 18.808 32.1075 17.8907 32.1075 16.696C32.1075 15.736 31.8302 15 31.2755 14.488C30.7208 13.9547 29.7715 13.5707 28.4275 13.336L25.9955 12.952C24.9288 12.7813 24.0328 12.504 23.3075 12.12C22.5822 11.7147 21.9955 11.2453 21.5475 10.712C21.0995 10.1573 20.7688 9.54933 20.5555 8.888C20.3635 8.20533 20.2675 7.49067 20.2675 6.744C20.2675 4.632 20.9502 3.032 22.3155 1.944C23.6808 0.834665 25.5582 0.279999 27.9475 0.279999C29.7182 0.279999 31.2222 0.567999 32.4595 1.144C33.7182 1.69867 34.7315 2.488 35.4995 3.512L33.2595 5.752C32.6408 5.00533 31.9048 4.408 31.0515 3.96C30.2195 3.49067 29.1848 3.256 27.9475 3.256C26.6248 3.256 25.6115 3.544 24.9075 4.12C24.2248 4.67467 23.8835 5.496 23.8835 6.584C23.8835 7.50133 24.1502 8.22667 24.6835 8.76C25.2382 9.272 26.2088 9.64533 27.5955 9.88L29.9635 10.296C31.9688 10.6587 33.4302 11.3947 34.3475 12.504C35.2648 13.592 35.7235 14.9253 35.7235 16.504C35.7235 17.528 35.5422 18.4667 35.1795 19.32C34.8382 20.1733 34.3155 20.8987 33.6115 21.496C32.9288 22.0933 32.0755 22.5627 31.0515 22.904C30.0488 23.224 28.8968 23.384 27.5955 23.384ZM46.783 23.384C44.8417 23.384 43.2097 23.0427 41.887 22.36C40.5643 21.6773 39.4763 20.7707 38.623 19.64L40.927 17.432C41.7803 18.456 42.687 19.2133 43.647 19.704C44.607 20.1733 45.695 20.408 46.911 20.408C48.319 20.408 49.3963 20.088 50.143 19.448C50.911 18.808 51.295 17.8907 51.295 16.696C51.295 15.736 51.0177 15 50.463 14.488C49.9083 13.9547 48.959 13.5707 47.615 13.336L45.183 12.952C44.1163 12.7813 43.2203 12.504 42.495 12.12C41.7697 11.7147 41.183 11.2453 40.735 10.712C40.287 10.1573 39.9563 9.54933 39.743 8.888C39.551 8.20533 39.455 7.49067 39.455 6.744C39.455 4.632 40.1377 3.032 41.503 1.944C42.8683 0.834665 44.7457 0.279999 47.135 0.279999C48.9057 0.279999 50.4097 0.567999 51.647 1.144C52.9057 1.69867 53.919 2.488 54.687 3.512L52.447 5.752C51.8283 5.00533 51.0923 4.408 50.239 3.96C49.407 3.49067 48.3723 3.256 47.135 3.256C45.8123 3.256 44.799 3.544 44.095 4.12C43.4123 4.67467 43.071 5.496 43.071 6.584C43.071 7.50133 43.3377 8.22667 43.871 8.76C44.4257 9.272 45.3963 9.64533 46.783 9.88L49.151 10.296C51.1563 10.6587 52.6177 11.3947 53.535 12.504C54.4523 13.592 54.911 14.9253 54.911 16.504C54.911 17.528 54.7297 18.4667 54.367 19.32C54.0257 20.1733 53.503 20.8987 52.799 21.496C52.1163 22.0933 51.263 22.5627 50.239 22.904C49.2363 23.224 48.0843 23.384 46.783 23.384Z" fill="#0C73B8"/>
</svg>
