<svg width="64" height="64" viewBox="0 0 64 64" fill="none" xmlns="http://www.w3.org/2000/svg">
<path d="M10.4375 8L10.625 10.1875L14.125 49.75L14.25 51.125L15.5625 51.5L31.4375 55.9375L31.9375 56.0625L32.5 55.9375L48.375 51.5625L49.6875 51.1875L49.8125 49.8125L53.375 10.1875L53.5625 8.0625H51.375L12.625 8H10.4375ZM14.8125 12L49.1875 12.0625L45.9375 48.0625L32 51.9375L18 48.0625L14.8125 12ZM19.625 18L20.9375 32.9375H38.0625L37.5 39.375L32 40.875H31.9375L26.4375 39.375L26.125 35.25H21.125L21.8125 43.1875L31.9375 46H32L42.125 43.1875L43.5 28H25.4375L25 22.9375H43.9375L44.375 18H19.625Z" fill="white"/>
</svg>
