<svg width="24" height="24" viewBox="0 0 24 24" fill="none" xmlns="http://www.w3.org/2000/svg">
<path fill-rule="evenodd" clip-rule="evenodd" d="M18.8824 1.61892C17.586 1.03228 16.1416 0.854655 14.7417 1.10972C13.3418 1.36478 12.0529 2.04042 11.0467 3.0466C10.0405 4.05277 9.3649 5.34169 9.10984 6.74158C8.89713 7.90903 8.98534 9.10742 9.36075 10.2251L2.91299 16.6729C2.32763 17.2582 1.99878 18.0522 1.99878 18.88C1.99878 19.7078 2.32763 20.5017 2.91299 21.0871C3.49835 21.6724 4.29227 22.0013 5.1201 22.0013C5.94793 22.0013 6.74185 21.6724 7.32721 21.0871L13.775 14.6393C14.8927 15.0147 16.091 15.103 17.2585 14.8902C18.6584 14.6352 19.9473 13.9595 20.9535 12.9534C21.9597 11.9472 22.6353 10.6583 22.8904 9.25838C23.1454 7.85848 22.9678 6.41409 22.3812 5.11771C22.2458 4.81863 21.9723 4.60502 21.6493 4.54618C21.3264 4.48733 20.9951 4.59075 20.763 4.82287L17.0001 8.58577L15.4143 6.99998L19.1772 3.23709C19.4093 3.00496 19.5127 2.67369 19.4539 2.35073C19.3951 2.02777 19.1815 1.75426 18.8824 1.61892ZM15.1002 3.07733C15.5839 2.9892 16.0749 2.97339 16.5579 3.02796L13.993 5.59287L13.986 5.59998C13.6195 5.97384 13.4142 6.47647 13.4142 6.99998C13.4142 7.52349 13.6195 8.02612 13.986 8.39998L13.993 8.40709L15.593 10.0071L15.6001 10.0141C15.974 10.3806 16.4766 10.5858 17.0001 10.5858C17.5236 10.5858 18.0262 10.3806 18.4001 10.0141L18.4072 10.0071L20.9721 7.44218C21.0267 7.92514 21.0109 8.41622 20.9228 8.89987C20.7406 9.8998 20.258 10.8205 19.5393 11.5392C18.8206 12.2578 17.8999 12.7404 16.9 12.9226C15.9001 13.1048 14.8684 12.978 13.9424 12.5589C13.5632 12.3873 13.1173 12.4686 12.823 12.7629L5.91299 19.6729C5.7027 19.8832 5.41749 20.0013 5.1201 20.0013C4.82271 20.0013 4.5375 19.8832 4.32721 19.6729C4.11692 19.4626 3.99878 19.1774 3.99878 18.88C3.99878 18.5826 4.11692 18.2974 4.32721 18.0871L11.2372 11.1771C11.5315 10.8828 11.6128 10.4369 11.4412 10.0577C11.0221 9.13172 10.8953 8.10001 11.0774 7.10009C11.2596 6.10016 11.7422 5.1795 12.4609 4.46081C13.1796 3.74211 14.1003 3.25952 15.1002 3.07733Z" fill="#12F7D6"/>
</svg>
