<svg width="24" height="24" viewBox="0 0 24 24" fill="none" xmlns="http://www.w3.org/2000/svg">
<path fill-rule="evenodd" clip-rule="evenodd" d="M12.5049 4C8.36546 4 5.00977 7.35569 5.00977 11.4952C5.00977 12.6933 5.29015 13.823 5.78798 14.8251C5.90559 15.0618 5.92469 15.3355 5.8411 15.5862L4.57224 19.3927L8.41713 18.1529C8.66574 18.0727 8.93584 18.093 9.16968 18.2094C10.173 18.7089 11.3047 18.9903 12.5049 18.9903C16.6444 18.9903 20.0001 15.6346 20.0001 11.4952C20.0001 7.35569 16.6444 4 12.5049 4ZM3.00977 11.4952C3.00977 6.25113 7.26089 2 12.5049 2C17.7489 2 22.0001 6.25113 22.0001 11.4952C22.0001 16.7392 17.7489 20.9903 12.5049 20.9903C11.1364 20.9903 9.83325 20.7002 8.65564 20.1774L3.30567 21.9025C2.94686 22.0182 2.55347 21.9223 2.2882 21.6544C2.02294 21.3865 1.93088 20.9922 2.0501 20.6345L3.81744 15.3326C3.29796 14.1581 3.00977 12.8591 3.00977 11.4952Z" fill="#12F7D6"/>
</svg>
