<svg width="24" height="24" viewBox="0 0 24 24" fill="none" xmlns="http://www.w3.org/2000/svg">
<g id="icon-calendar-target">
<g id="Shape">
<path fill-rule="evenodd" clip-rule="evenodd" d="M17 2C17 1.44772 16.5523 1 16 1C15.4477 1 15 1.44772 15 2V3H9V2C9 1.44772 8.55228 1 8 1C7.44772 1 7 1.44772 7 2V3H5C3.34315 3 2 4.34315 2 6V13H4V11H20V20C20 20.5523 19.5523 21 19 21H12V23H19C20.6569 23 22 21.6569 22 20V6C22 4.34315 20.6569 3 19 3H17V2ZM20 9V6C20 5.44772 19.5523 5 19 5H17V6C17 6.55228 16.5523 7 16 7C15.4477 7 15 6.55228 15 6V5H9V6C9 6.55228 8.55228 7 8 7C7.44772 7 7 6.55228 7 6V5H5C4.44772 5 4 5.44772 4 6V9H20Z" fill="#12F7D6"/>
<path d="M6 12.7933C6.39382 12.4022 7.03234 12.4022 7.42616 12.7933L11.7046 17.0419C12.0985 17.433 12.0985 18.067 11.7046 18.4581L7.42616 22.7067C7.03234 23.0978 6.39382 23.0978 6 22.7067C5.60618 22.3156 5.60618 21.6816 6 21.2905L8.55695 18.7514L1.00845 18.7514C0.451497 18.7514 0 18.3031 0 17.75C0 17.1969 0.451497 16.7486 1.00845 16.7486L8.55695 16.7486L6 14.2095C5.60618 13.8184 5.60618 13.1844 6 12.7933Z" fill="#12F7D6"/>
</g>
</g>
</svg>
