<svg width="24" height="24" viewBox="0 0 24 24" fill="none" xmlns="http://www.w3.org/2000/svg">
<path fill-rule="evenodd" clip-rule="evenodd" d="M3.38458 2.07694C3.01053 1.9211 2.57942 2.0064 2.29289 2.29292C2.00637 2.57945 1.92107 3.01056 2.07691 3.38461L9.14691 20.3546C9.30689 20.7386 9.68789 20.9835 10.1037 20.9695C10.5194 20.9555 10.8831 20.6855 11.0169 20.2916L13.0098 14.424L18.2929 19.7071C18.6834 20.0977 19.3166 20.0977 19.7071 19.7071C20.0976 19.3166 20.0976 18.6834 19.7071 18.2929L14.424 13.0098L20.2916 11.0169C20.6855 10.8831 20.9554 10.5194 20.9694 10.1037C20.9834 9.68792 20.7386 9.30692 20.3546 9.14694L3.38458 2.07694ZM9.97473 17.1411L4.85695 4.85698L17.1411 9.97476L12.2584 11.6332C11.9641 11.7331 11.7331 11.9642 11.6331 12.2584L9.97473 17.1411Z" fill="#12F7D6"/>
</svg>
