<svg width="24" height="24" viewBox="0 0 24 24" fill="none" xmlns="http://www.w3.org/2000/svg">
<path fill-rule="evenodd" clip-rule="evenodd" d="M17.1887 8.07624C17.3085 7.7169 17.2149 7.32074 16.9471 7.0529C16.6793 6.78507 16.2831 6.69155 15.9238 6.81133L9.56378 8.93133C9.26518 9.03086 9.03086 9.26518 8.93133 9.56378L6.81133 15.9238C6.69155 16.2831 6.78507 16.6793 7.0529 16.9471C7.32074 17.2149 7.7169 17.3085 8.07624 17.1887L14.4362 15.0687C14.7348 14.9692 14.9692 14.7348 15.0687 14.4362L17.1887 8.07624ZM9.34115 14.6589L10.6706 10.6706L14.6589 9.34115L13.3294 13.3294L9.34115 14.6589Z" fill="#12F7D6"/>
<path fill-rule="evenodd" clip-rule="evenodd" d="M12 1C5.92487 1 1 5.92487 1 12C1 18.0751 5.92487 23 12 23C18.0751 23 23 18.0751 23 12C23 5.92487 18.0751 1 12 1ZM3 12C3 7.02944 7.02944 3 12 3C16.9706 3 21 7.02944 21 12C21 16.9706 16.9706 21 12 21C7.02944 21 3 16.9706 3 12Z" fill="#12F7D6"/>
</svg>
