<svg width="24" height="24" viewBox="0 0 24 24" fill="none" xmlns="http://www.w3.org/2000/svg">
<path d="M4.70711 4.29289C4.31658 3.90237 3.68342 3.90237 3.29289 4.29289C2.90237 4.68342 2.90237 5.31658 3.29289 5.70711L8.58579 11L3.29289 16.2929C2.90237 16.6834 2.90237 17.3166 3.29289 17.7071C3.68342 18.0976 4.31658 18.0976 4.70711 17.7071L10.7071 11.7071C11.0976 11.3166 11.0976 10.6834 10.7071 10.2929L4.70711 4.29289Z" fill="#12F7D6"/>
<path d="M12 18C11.4477 18 11 18.4477 11 19C11 19.5523 11.4477 20 12 20H20C20.5523 20 21 19.5523 21 19C21 18.4477 20.5523 18 20 18H12Z" fill="#12F7D6"/>
</svg>
