<svg width="24" height="24" viewBox="0 0 24 24" fill="none" xmlns="http://www.w3.org/2000/svg">
<g id="icon-cloud">
<path id="Shape" fill-rule="evenodd" clip-rule="evenodd" d="M9 5C5.13401 5 2 8.13401 2 12C2 15.866 5.13401 19 9 19H18C20.2091 19 22 17.2091 22 15C22 12.7909 20.2091 11 18 11H16.748C16.2917 11 15.8933 10.6911 15.7795 10.2493C15.0024 7.2299 12.2603 5 9 5ZM0 12C0 7.02944 4.02944 3 9 3C12.9196 3 16.2521 5.50489 17.4876 9H18C21.3137 9 24 11.6863 24 15C24 18.3137 21.3137 21 18 21H9C4.02944 21 0 16.9706 0 12Z" fill="#12F7D6"/>
</g>
</svg>
