<svg width="36" height="24" viewBox="0 0 36 24" fill="none" xmlns="http://www.w3.org/2000/svg">
<path d="M14.276 0.664V17.016C14.276 17.976 14.1053 18.8507 13.764 19.64C13.444 20.4293 12.9747 21.1013 12.356 21.656C11.7587 22.2107 11.0333 22.6373 10.18 22.936C9.32667 23.2347 8.37733 23.384 7.332 23.384C5.36933 23.384 3.80133 22.8933 2.628 21.912C1.476 20.9307 0.729333 19.576 0.388 17.848L3.78 17.144C3.972 18.0613 4.33467 18.8293 4.868 19.448C5.40133 20.0667 6.23333 20.376 7.364 20.376C8.40933 20.376 9.22 20.0667 9.796 19.448C10.3933 18.808 10.692 17.8373 10.692 16.536V3.672H2.916V0.664H14.276ZM27.0955 23.384C25.1542 23.384 23.5222 23.0427 22.1995 22.36C20.8768 21.6773 19.7888 20.7707 18.9355 19.64L21.2395 17.432C22.0928 18.456 22.9995 19.2133 23.9595 19.704C24.9195 20.1733 26.0075 20.408 27.2235 20.408C28.6315 20.408 29.7088 20.088 30.4555 19.448C31.2235 18.808 31.6075 17.8907 31.6075 16.696C31.6075 15.736 31.3302 15 30.7755 14.488C30.2208 13.9547 29.2715 13.5707 27.9275 13.336L25.4955 12.952C24.4288 12.7813 23.5328 12.504 22.8075 12.12C22.0822 11.7147 21.4955 11.2453 21.0475 10.712C20.5995 10.1573 20.2688 9.54933 20.0555 8.888C19.8635 8.20533 19.7675 7.49067 19.7675 6.744C19.7675 4.632 20.4502 3.032 21.8155 1.944C23.1808 0.834665 25.0582 0.279999 27.4475 0.279999C29.2182 0.279999 30.7222 0.567999 31.9595 1.144C33.2182 1.69867 34.2315 2.488 34.9995 3.512L32.7595 5.752C32.1408 5.00533 31.4048 4.408 30.5515 3.96C29.7195 3.49067 28.6848 3.256 27.4475 3.256C26.1248 3.256 25.1115 3.544 24.4075 4.12C23.7248 4.67467 23.3835 5.496 23.3835 6.584C23.3835 7.50133 23.6502 8.22667 24.1835 8.76C24.7382 9.272 25.7088 9.64533 27.0955 9.88L29.4635 10.296C31.4688 10.6587 32.9302 11.3947 33.8475 12.504C34.7648 13.592 35.2235 14.9253 35.2235 16.504C35.2235 17.528 35.0422 18.4667 34.6795 19.32C34.3382 20.1733 33.8155 20.8987 33.1115 21.496C32.4288 22.0933 31.5755 22.5627 30.5515 22.904C29.5488 23.224 28.3968 23.384 27.0955 23.384Z" fill="#E7A020"/>
</svg>
