<svg width="94" height="24" viewBox="0 0 94 24" fill="none" xmlns="http://www.w3.org/2000/svg">
<path d="M4.24 23H0.688V0.664H9.04C11.1733 0.664 12.7947 1.26133 13.904 2.456C15.0347 3.65067 15.6 5.29333 15.6 7.384C15.6 9.09067 15.184 10.4987 14.352 11.608C13.52 12.7173 12.3253 13.4 10.768 13.656L15.92 23H11.952L7.216 13.976H4.24V23ZM8.528 11.096C10.7467 11.096 11.856 10.0827 11.856 8.056V6.68C11.856 4.65333 10.7467 3.64 8.528 3.64H4.24V11.096H8.528ZM19.9395 23V0.664H33.9235V3.672H23.5235V10.168H33.5395V13.176H23.5235V19.992H33.9235V23H19.9395ZM51.159 23L49.463 17.048H42.359L40.663 23H37.015L43.543 0.664H48.439L54.967 23H51.159ZM46.039 4.28H45.783L43.031 14.072H48.791L46.039 4.28ZM65.8025 23.384C62.9652 23.384 60.8532 22.3813 59.4665 20.376C58.1012 18.3707 57.4185 15.5227 57.4185 11.832C57.4185 8.14133 58.1012 5.29333 59.4665 3.288C60.8532 1.28267 62.9652 0.279999 65.8025 0.279999C66.8905 0.279999 67.8292 0.429332 68.6185 0.727999C69.4292 1.00533 70.1225 1.4 70.6985 1.912C71.2745 2.40267 71.7545 2.98933 72.1385 3.672C72.5438 4.33333 72.8745 5.048 73.1305 5.816L69.8985 6.904C69.7278 6.392 69.5358 5.912 69.3225 5.464C69.1092 5.016 68.8425 4.632 68.5225 4.312C68.2025 3.992 67.8185 3.736 67.3705 3.544C66.9438 3.352 66.4105 3.256 65.7705 3.256C64.1918 3.256 63.0398 3.864 62.3145 5.08C61.5892 6.27467 61.2265 7.896 61.2265 9.944V13.72C61.2265 15.768 61.5892 17.4 62.3145 18.616C63.0398 19.8107 64.1918 20.408 65.7705 20.408C66.4105 20.408 66.9438 20.312 67.3705 20.12C67.8185 19.928 68.2025 19.672 68.5225 19.352C68.8425 19.032 69.1092 18.648 69.3225 18.2C69.5358 17.752 69.7278 17.272 69.8985 16.76L73.1305 17.848C72.8745 18.616 72.5438 19.3413 72.1385 20.024C71.7545 20.6853 71.2745 21.272 70.6985 21.784C70.1225 22.2747 69.4292 22.6693 68.6185 22.968C67.8292 23.2453 66.8905 23.384 65.8025 23.384ZM86.142 3.672V23H82.558V3.672H75.55V0.664H93.15V3.672H86.142Z" fill="#28A9E0"/>
</svg>
